# xmcd
#
# Track frame offsets: 
#        150
#        20342
#        40980
#        62410
#        85755
#        108457
#        132600
#        154332
#        175027
#        192050
#        214687
#        236910
#
# Disc length: 3433 seconds
#
# Revision: 9
# Processed by: cddbd v1.5.2PL0 Copyright (c) Steve Scherf et al.
# Submitted via: ExactAudioCopy v1.0b3
#
DISCID=9f0d670c
DTITLE=嵐 - 嵐 Single Collection 1999-2001
DYEAR=2002
DGENRE=JPop
TTITLE0=A・RA・SHI 
TTITLE1=明日に向かって
TTITLE2=SUNRISE日本
TTITLE3=HORIZON
TTITLE4=台風ジェネレーション -Typhoon Generation-
TTITLE5=明日に向かって吠えろ
TTITLE6=感謝カンゲキ雨嵐
TTITLE7=OK! ALL RIGHT! いい恋をしよう
TTITLE8=君のために僕がいる
TTITLE9=はなさない!
TTITLE10=時代
TTITLE11=恋はブレッキー
EXTD=YEAR: 2002
EXTT0=
EXTT1=
EXTT2=
EXTT3=
EXTT4=
EXTT5=
EXTT6=
EXTT7=
EXTT8=
EXTT9=
EXTT10=
EXTT11=
PLAYORDER=
